<svg xmlns="http://www.w3.org/2000/svg" xmlns:xlink="http://www.w3.org/1999/xlink" style="margin:auto;background:#f1f2f3;display:block;z-index:1;position:relative" width="2560" height="937" preserveAspectRatio="xMidYMid" viewBox="0 0 2560 937">
  <g transform="translate(1280,468.5) scale(1,1) translate(-1280,-468.5)"><path id="path0" d="M 1523.5003594901934 148.802038980448
c 0 33.2022062348509 -8.123944078740113 9.536803918521002 -17.660747997261115 9.536803918521002
S 1488.1788634956713 182.0042452152989 1488.1788634956713 148.802038980448
s 8.123944078740113 -9.536803918521002 17.660747997261115 -9.536803918521002
S 1523.5003594901934 115.5998327455971 1523.5003594901934 148.802038980448
z" fill="none" stroke="none"></path>
    <circle cx="0" cy="0" r="6.958520742173276" fill="#0a0a0a">
      <animateMotion begin="-8.617356333298194s" dur="10s" repeatCount="indefinite">
        <mpath xlink:href="#path0"></mpath>
      </animateMotion>
    </circle><path id="path1" d="M 2084.4590614717345 803.4729947825161
c 0 20.400682836722282 -4.991656438772473 5.859770602037251 -10.851427040809725 5.859770602037251
S 2062.7562073901154 823.8736776192384 2062.7562073901154 803.4729947825161
s 4.991656438772473 -5.859770602037251 10.851427040809725 -5.859770602037251
S 2084.4590614717345 783.0723119457939 2084.4590614717345 803.4729947825161
z" fill="none" stroke="none"></path>
    <circle cx="0" cy="0" r="7.752625519869959" fill="#17e76a">
      <animateMotion begin="-0.09695656910944317s" dur="10s" repeatCount="indefinite">
        <mpath xlink:href="#path1"></mpath>
      </animateMotion>
    </circle><path id="path2" d="M 1290.1393146726753 475.64014435481204
c 0 31.760051870230388 -7.771076521439349 9.122568090385325 -16.893644611824673 9.122568090385325
S 1256.352025449026 507.4001962250424 1256.352025449026 475.64014435481204
s 7.771076521439349 -9.122568090385325 16.893644611824673 -9.122568090385325
S 1290.1393146726753 443.88009248458167 1290.1393146726753 475.64014435481204
z" fill="none" stroke="none"></path>
    <circle cx="0" cy="0" r="6.414591960968336" fill="#ffffff">
      <animateMotion begin="-0.17380354393180086s" dur="10s" repeatCount="indefinite">
        <mpath xlink:href="#path2"></mpath>
      </animateMotion>
    </circle><path id="path3" d="M 2426.9817735767756 590.2774716184367
c 0 19.736980038847175 -4.829261073334946 5.66913256434972 -10.498393637684666 5.66913256434972
S 2405.984986301406 610.0144516572839 2405.984986301406 590.2774716184367
s 4.829261073334946 -5.66913256434972 10.498393637684666 -5.66913256434972
S 2426.9817735767756 570.5404915795896 2426.9817735767756 590.2774716184367
z" fill="none" stroke="none"></path>
    <circle cx="0" cy="0" r="6.163910727773467" fill="#28292f">
      <animateMotion begin="-6.727117298628982s" dur="10s" repeatCount="indefinite">
        <mpath xlink:href="#path3"></mpath>
      </animateMotion>
    </circle><path id="path4" d="M 501.1123110523965 655.7349910387352
c 0 32.5554626604661 -7.965698310539576 9.351037147155155 -17.316735457694733 9.351037147155155
S 466.478840137007 688.2904536992013 466.478840137007 655.7349910387352
s 7.965698310539576 -9.351037147155155 17.316735457694733 -9.351037147155155
S 501.1123110523965 623.1795283782691 501.1123110523965 655.7349910387352
z" fill="none" stroke="none"></path>
    <circle cx="0" cy="0" r="4.341917685111601" fill="#ffffff">
      <animateMotion begin="-8.088411449745369s" dur="10s" repeatCount="indefinite">
        <mpath xlink:href="#path4"></mpath>
      </animateMotion>
    </circle><path id="path5" d="M 893.4332941994894 713.8437762211054
c 0 23.464292912480317 -5.741263159436673 6.739743708903921 -12.481006868340593 6.739743708903921
S 868.4712804628082 737.3080691335857 868.4712804628082 713.8437762211054
s 5.741263159436673 -6.739743708903921 12.481006868340593 -6.739743708903921
S 893.4332941994894 690.379483308625 893.4332941994894 713.8437762211054
z" fill="none" stroke="none"></path>
    <circle cx="0" cy="0" r="6.037608093731127" fill="#ffffff">
      <animateMotion begin="-1.8101033304806213s" dur="10s" repeatCount="indefinite">
        <mpath xlink:href="#path5"></mpath>
      </animateMotion>
    </circle><path id="path6" d="M 1584.6956719587727 627.0508085862784
c 0 24.632675286422746 -6.027143953060884 7.0753429014193 -13.102486854480183 7.0753429014193
S 1558.490698249812 651.6834838727012 1558.490698249812 627.0508085862784
s 6.027143953060884 -7.0753429014193 13.102486854480183 -7.0753429014193
S 1584.6956719587727 602.4181332998556 1584.6956719587727 627.0508085862784
z" fill="none" stroke="none"></path>
    <circle cx="0" cy="0" r="6.902569293260317" fill="#28292f">
      <animateMotion begin="-6.10931237584019s" dur="10s" repeatCount="indefinite">
        <mpath xlink:href="#path6"></mpath>
      </animateMotion>
    </circle><path id="path7" d="M 203.97942423795843 334.43556111496895
c 0 19.306390792079053 -4.723904129976789 5.54545267432058 -10.26935680429737 5.54545267432058
S 183.4407106293637 353.741951907048 183.4407106293637 334.43556111496895
s 4.723904129976789 -5.54545267432058 10.26935680429737 -5.54545267432058
S 203.97942423795843 315.1291703228899 203.97942423795843 334.43556111496895
z" fill="none" stroke="none"></path>
    <circle cx="0" cy="0" r="6.362314495298666" fill="#28292f">
      <animateMotion begin="-5.543287721853409s" dur="10s" repeatCount="indefinite">
        <mpath xlink:href="#path7"></mpath>
      </animateMotion>
    </circle><path id="path8" d="M 2384.8165479789454 471.7423023827721
c 0 34.48046681822802 -8.436709966162175 9.903963873320814 -18.34067383948299 9.903963873320814
S 2348.1352002999797 506.2227692010001 2348.1352002999797 471.7423023827721
s 8.436709966162175 -9.903963873320814 18.34067383948299 -9.903963873320814
S 2384.8165479789454 437.26183556454407 2384.8165479789454 471.7423023827721
z" fill="none" stroke="none"></path>
    <circle cx="0" cy="0" r="7.721188900137678" fill="#ffffff">
      <animateMotion begin="-0.6750076866509147s" dur="10s" repeatCount="indefinite">
        <mpath xlink:href="#path8"></mpath>
      </animateMotion>
    </circle><path id="path9" d="M 1858.487116984596 857.6333872715765
c 0 21.070188185588453 -5.1554715773248345 6.052075329903067 -11.2075469072279 6.052075329903067
S 1836.0720231701403 878.7035754571649 1836.0720231701403 857.6333872715765
s 5.1554715773248345 -6.052075329903067 11.2075469072279 -6.052075329903067
S 1858.487116984596 836.563199085988 1858.487116984596 857.6333872715765
z" fill="none" stroke="none"></path>
    <circle cx="0" cy="0" r="6.639280285611727" fill="#57ee15">
      <animateMotion begin="-1.1704555859739463s" dur="10s" repeatCount="indefinite">
        <mpath xlink:href="#path9"></mpath>
      </animateMotion>
    </circle><path id="path10" d="M 540.5870353075638 596.3305835715041
c 0 32.07289523926977 -7.84762330322558 9.212427355960465 -17.060050659186047 9.212427355960465
S 506.4669339891918 628.4034788107739 506.4669339891918 596.3305835715041
s 7.84762330322558 -9.212427355960465 17.060050659186047 -9.212427355960465
S 540.5870353075638 564.2576883322344 540.5870353075638 596.3305835715041
z" fill="none" stroke="none"></path>
    <circle cx="0" cy="0" r="4.484975221104812" fill="#0a0a0a">
      <animateMotion begin="-1.8592378162062695s" dur="10s" repeatCount="indefinite">
        <mpath xlink:href="#path10"></mpath>
      </animateMotion>
    </circle><path id="path11" d="M 1653.3621227388528 436.5949661574972
c 0 33.72873098337537 -8.25277460231525 9.68803975054399 -17.940814352859242 9.68803975054399
S 1617.4804940331344 470.3236971408726 1617.4804940331344 436.5949661574972
s 8.25277460231525 -9.68803975054399 17.940814352859242 -9.68803975054399
S 1653.3621227388528 402.8662351741218 1653.3621227388528 436.5949661574972
z" fill="none" stroke="none"></path>
    <circle cx="0" cy="0" r="4.125212479242002" fill="#57ee15">
      <animateMotion begin="-5.126768758677647s" dur="10s" repeatCount="indefinite">
        <mpath xlink:href="#path11"></mpath>
      </animateMotion>
    </circle><path id="path12" d="M 1640.382149396411 288.41193604242056
c 0 21.14728518126578 -5.174335735841627 6.074220211640171 -11.248555947481798 6.074220211640171
S 1617.8850375014476 309.55922122368634 1617.8850375014476 288.41193604242056
s 5.174335735841627 -6.074220211640171 11.248555947481798 -6.074220211640171
S 1640.382149396411 267.2646508611548 1640.382149396411 288.41193604242056
z" fill="none" stroke="none"></path>
    <circle cx="0" cy="0" r="6.876019407723443" fill="#28292f">
      <animateMotion begin="-5.126463688033258s" dur="10s" repeatCount="indefinite">
        <mpath xlink:href="#path12"></mpath>
      </animateMotion>
    </circle><path id="path13" d="M 2332.9349743706794 889.9960901670133
c 0 23.17724044543471 -5.671026917499981 6.657292468369545 -12.328319385869527 6.657292468369545
S 2308.27833559894 913.173330612448 2308.27833559894 889.9960901670133
s 5.671026917499981 -6.657292468369545 12.328319385869527 -6.657292468369545
S 2332.9349743706794 866.8188497215787 2332.9349743706794 889.9960901670133
z" fill="none" stroke="none"></path>
    <circle cx="0" cy="0" r="5.564648276274729" fill="#28292f">
      <animateMotion begin="-8.696446133110129s" dur="10s" repeatCount="indefinite">
        <mpath xlink:href="#path13"></mpath>
      </animateMotion>
    </circle><path id="path14" d="M 1578.4401980601738 455.38999065854995
c 0 26.49909693476684 -6.483821590421673 7.6114427365819655 -14.095264327003639 7.6114427365819655
S 1550.2496694061665 481.8890875933168 1550.2496694061665 455.38999065854995
s 6.483821590421673 -7.6114427365819655 14.095264327003639 -7.6114427365819655
S 1578.4401980601738 428.8908937237831 1578.4401980601738 455.38999065854995
z" fill="none" stroke="none"></path>
    <circle cx="0" cy="0" r="7.2152742440704625" fill="#28292f">
      <animateMotion begin="-6.237664816063672s" dur="10s" repeatCount="indefinite">
        <mpath xlink:href="#path14"></mpath>
      </animateMotion>
    </circle><path id="path15" d="M 2470.5110463792107 308.45621366227675
c 0 21.981918778487525 -5.3785545947363085 6.313955393820885 -11.692509988557195 6.313955393820885
S 2447.1260264020966 330.43813244076426 2447.1260264020966 308.45621366227675
s 5.3785545947363085 -6.313955393820885 11.692509988557195 -6.313955393820885
S 2470.5110463792107 286.47429488378924 2470.5110463792107 308.45621366227675
z" fill="none" stroke="none"></path>
    <circle cx="0" cy="0" r="7.137042944900115" fill="#28292f">
      <animateMotion begin="-0.2699976144875138s" dur="10s" repeatCount="indefinite">
        <mpath xlink:href="#path15"></mpath>
      </animateMotion>
    </circle><path id="path16" d="M 473.4814169157996 125.38514156325016
c 0 18.880025883249782 -4.619580801220691 5.422986157954726 -10.042566959175417 5.422986157954726
S 453.3962829974488 144.26516744649993 453.3962829974488 125.38514156325016
s 4.619580801220691 -5.422986157954726 10.042566959175417 -5.422986157954726
S 473.4814169157996 106.50511568000037 473.4814169157996 125.38514156325016
z" fill="none" stroke="none"></path>
    <circle cx="0" cy="0" r="6.991227123729275" fill="#0a0a0a">
      <animateMotion begin="-7.928629851851172s" dur="10s" repeatCount="indefinite">
        <mpath xlink:href="#path16"></mpath>
      </animateMotion>
    </circle><path id="path17" d="M 1174.3333442056496 412.3168426654387
c 0 29.72381518644991 -7.272848396684552 8.537691596107953 -15.810539992792505 8.537691596107953
S 1142.7122642200648 442.04065785188857 1142.7122642200648 412.3168426654387
s 7.272848396684552 -8.537691596107953 15.810539992792505 -8.537691596107953
S 1174.3333442056496 382.5930274789888 1174.3333442056496 412.3168426654387
z" fill="none" stroke="none"></path>
    <circle cx="0" cy="0" r="6.741742442139127" fill="#17e76a">
      <animateMotion begin="-4.623004747517125s" dur="10s" repeatCount="indefinite">
        <mpath xlink:href="#path17"></mpath>
      </animateMotion>
    </circle><path id="path18" d="M 1005.8166668405031 838.7563165211234
c 0 32.05852306046689 -7.844106706284451 9.208299176942617 -17.052405883227067 9.208299176942617
S 971.711855074049 870.8148395815903 971.711855074049 838.7563165211234
s 7.844106706284451 -9.208299176942617 17.052405883227067 -9.208299176942617
S 1005.8166668405031 806.6977934606565 1005.8166668405031 838.7563165211234
z" fill="none" stroke="none"></path>
    <circle cx="0" cy="0" r="6.560402839518363" fill="#ffffff">
      <animateMotion begin="-8.844532250847266s" dur="10s" repeatCount="indefinite">
        <mpath xlink:href="#path18"></mpath>
      </animateMotion>
    </circle><path id="path19" d="M 1708.3446503677567 38.51179246238017
c 0 19.3588873259995 -4.736749026574345 5.560531465978579 -10.297280492552925 5.560531465978579
S 1687.7500893826507 57.870679788379675 1687.7500893826507 38.51179246238017
s 4.736749026574345 -5.560531465978579 10.297280492552925 -5.560531465978579
S 1708.3446503677567 19.15290513638067 1708.3446503677567 38.51179246238017
z" fill="none" stroke="none"></path>
    <circle cx="0" cy="0" r="6.159666894064839" fill="#17e76a">
      <animateMotion begin="-0.6809839029228737s" dur="10s" repeatCount="indefinite">
        <mpath xlink:href="#path19"></mpath>
      </animateMotion>
    </circle><path id="path20" d="M 1604.8009868710851 60.22047815422882
c 0 35.03080499875517 -8.571367180546478 10.062039733684996 -18.633406914231475 10.062039733684996
S 1567.5341730426221 95.251283152984 1567.5341730426221 60.22047815422882
s 8.571367180546478 -10.062039733684996 18.633406914231475 -10.062039733684996
S 1604.8009868710851 25.18967315547365 1604.8009868710851 60.22047815422882
z" fill="none" stroke="none"></path>
    <circle cx="0" cy="0" r="5.977372460606098" fill="#0a0a0a">
      <animateMotion begin="-3.635300159517627s" dur="10s" repeatCount="indefinite">
        <mpath xlink:href="#path20"></mpath>
      </animateMotion>
    </circle><path id="path21" d="M 741.325489156829 422.302499152858
c 0 33.07547481946957 -8.092935328168085 9.500402341762536 -17.59333766993062 9.500402341762536
S 706.1388138169677 455.37797397232754 706.1388138169677 422.302499152858
s 8.092935328168085 -9.500402341762536 17.59333766993062 -9.500402341762536
S 741.325489156829 389.22702433338844 741.325489156829 422.302499152858
z" fill="none" stroke="none"></path>
    <circle cx="0" cy="0" r="5.873456738054662" fill="#17e76a">
      <animateMotion begin="-2.6412349600229934s" dur="10s" repeatCount="indefinite">
        <mpath xlink:href="#path21"></mpath>
      </animateMotion>
    </circle><path id="path22" d="M 2295.12277685063 175.4229905925318
c 0 34.29468329118742 -8.39125229465224 9.850600519809152 -18.241852814461392 9.850600519809152
S 2258.6390712217076 209.71767388371921 2258.6390712217076 175.4229905925318
s 8.39125229465224 -9.850600519809152 18.241852814461392 -9.850600519809152
S 2295.12277685063 141.12830730134436 2295.12277685063 175.4229905925318
z" fill="none" stroke="none"></path>
    <circle cx="0" cy="0" r="6.219689135318344" fill="#57ee15">
      <animateMotion begin="-2.918488384521656s" dur="10s" repeatCount="indefinite">
        <mpath xlink:href="#path22"></mpath>
      </animateMotion>
    </circle><path id="path23" d="M 1709.9246306660195 714.2612803151028
c 0 21.766313189913273 -5.325800035829842 6.252026129017642 -11.577826164847485 6.252026129017642
S 1686.7689783363246 736.0275935050161 1686.7689783363246 714.2612803151028
s 5.325800035829842 -6.252026129017642 11.577826164847485 -6.252026129017642
S 1709.9246306660195 692.4949671251895 1709.9246306660195 714.2612803151028
z" fill="none" stroke="none"></path>
    <circle cx="0" cy="0" r="7.34519988754598" fill="#57ee15">
      <animateMotion begin="-0.215667987372814s" dur="10s" repeatCount="indefinite">
        <mpath xlink:href="#path23"></mpath>
      </animateMotion>
    </circle><path id="path24" d="M 400.4784761512235 200.68726800744406
c 0 28.872999408975403 -7.064670068153555 8.293308340875914 -15.357978409029469 8.293308340875914
S 369.7625193331646 229.56026741641946 369.7625193331646 200.68726800744406
s 7.064670068153555 -8.293308340875914 15.357978409029469 -8.293308340875914
S 400.4784761512235 171.81426859846866 400.4784761512235 200.68726800744406
z" fill="none" stroke="none"></path>
    <circle cx="0" cy="0" r="4.670028052658329" fill="#0a0a0a">
      <animateMotion begin="-6.737628859763256s" dur="10s" repeatCount="indefinite">
        <mpath xlink:href="#path24"></mpath>
      </animateMotion>
    </circle><path id="path25" d="M 493.2156573976803 689.072052579355
c 0 36.336262821730465 -8.890787711700007 10.437011661560879 -19.327799373260884 10.437011661560879
S 454.56005865115856 725.4083154010855 454.56005865115856 689.072052579355
s 8.890787711700007 -10.437011661560879 19.327799373260884 -10.437011661560879
S 493.2156573976803 652.7357897576246 493.2156573976803 689.072052579355
z" fill="none" stroke="none"></path>
    <circle cx="0" cy="0" r="6.1700869414496475" fill="#17e76a">
      <animateMotion begin="-2.0898910166338402s" dur="10s" repeatCount="indefinite">
        <mpath xlink:href="#path25"></mpath>
      </animateMotion>
    </circle><path id="path26" d="M 1350.716698174883 194.69127583729406
c 0 25.98064080086248 -6.356965302338692 7.462524485354117 -13.81948978769281 7.462524485354117
S 1323.0777185994973 220.67191663815655 1323.0777185994973 194.69127583729406
s 6.356965302338692 -7.462524485354117 13.81948978769281 -7.462524485354117
S 1350.716698174883 168.71063503643157 1350.716698174883 194.69127583729406
z" fill="none" stroke="none"></path>
    <circle cx="0" cy="0" r="7.417149934260541" fill="#57ee15">
      <animateMotion begin="-6.098046499981226s" dur="10s" repeatCount="indefinite">
        <mpath xlink:href="#path26"></mpath>
      </animateMotion>
    </circle><path id="path27" d="M 1679.5113546719397 461.76500902955354
c 0 30.289382908035886 -7.411231988136439 8.70014189911669 -16.11137388725313 8.70014189911669
S 1647.2886068974333 492.0543919375894 1647.2886068974333 461.76500902955354
s 7.411231988136439 -8.70014189911669 16.11137388725313 -8.70014189911669
S 1679.5113546719397 431.4756261215177 1679.5113546719397 461.76500902955354
z" fill="none" stroke="none"></path>
    <circle cx="0" cy="0" r="7.748097512365289" fill="#28292f">
      <animateMotion begin="-2.2199688870649736s" dur="10s" repeatCount="indefinite">
        <mpath xlink:href="#path27"></mpath>
      </animateMotion>
    </circle><path id="path28" d="M 314.1480208982182 756.6416303872539
c 0 30.807962453500643 -7.53811847266505 8.84909559834593 -16.38721407101098 8.84909559834593
S 281.3735927561962 787.4495928407546 281.3735927561962 756.6416303872539
s 7.53811847266505 -8.84909559834593 16.38721407101098 -8.84909559834593
S 314.1480208982182 725.8336679337533 314.1480208982182 756.6416303872539
z" fill="none" stroke="none"></path>
    <circle cx="0" cy="0" r="4.606076186329863" fill="#17e76a">
      <animateMotion begin="-8.439463427748986s" dur="10s" repeatCount="indefinite">
        <mpath xlink:href="#path28"></mpath>
      </animateMotion>
    </circle><path id="path29" d="M 702.9160653523819 11.922295492461696
c 0 30.818651532548763 -7.540733885623633 8.852165865732092 -16.392899751355724 8.852165865732092
S 670.1302658496705 42.740947025010456 670.1302658496705 11.922295492461696
s 7.540733885623633 -8.852165865732092 16.392899751355724 -8.852165865732092
S 702.9160653523819 -18.896356040087067 702.9160653523819 11.922295492461696
z" fill="none" stroke="none"></path>
    <circle cx="0" cy="0" r="5.9196367929051235" fill="#17e76a">
      <animateMotion begin="-6.402974008305222s" dur="10s" repeatCount="indefinite">
        <mpath xlink:href="#path29"></mpath>
      </animateMotion>
    </circle><path id="path30" d="M 945.6185272783533 882.6440489501744
c 0 23.21823036232755 -5.681056365250358 6.669066167902594 -12.350122533152952 6.669066167902594
S 920.9182822120475 905.8622793125019 920.9182822120475 882.6440489501744
s 5.681056365250358 -6.669066167902594 12.350122533152952 -6.669066167902594
S 945.6185272783533 859.4258185878468 945.6185272783533 882.6440489501744
z" fill="none" stroke="none"></path>
    <circle cx="0" cy="0" r="5.910162997006498" fill="#28292f">
      <animateMotion begin="-7.753304735787023s" dur="10s" repeatCount="indefinite">
        <mpath xlink:href="#path30"></mpath>
      </animateMotion>
    </circle><path id="path31" d="M 1466.062178066129 250.56352116892535
c 0 33.30768720783843 -8.149753252981743 9.567101644804655 -17.716854897786398 9.567101644804655
S 1430.6284682705564 283.8712083767638 1430.6284682705564 250.56352116892535
s 8.149753252981743 -9.567101644804655 17.716854897786398 -9.567101644804655
S 1466.062178066129 217.25583396108692 1466.062178066129 250.56352116892535
z" fill="none" stroke="none"></path>
    <circle cx="0" cy="0" r="7.676657449695317" fill="#28292f">
      <animateMotion begin="-9.109412704923109s" dur="10s" repeatCount="indefinite">
        <mpath xlink:href="#path31"></mpath>
      </animateMotion>
    </circle><path id="path32" d="M 1240.4106537660239 793.237058963636
c 0 20.61693701322869 -5.044569694726168 5.9218861633741975 -10.966455858100366 5.9218861633741975
S 1218.4777420498233 813.8539959768647 1218.4777420498233 793.237058963636
s 5.044569694726168 -5.9218861633741975 10.966455858100366 -5.9218861633741975
S 1240.4106537660239 772.6201219504072 1240.4106537660239 793.237058963636
z" fill="none" stroke="none"></path>
    <circle cx="0" cy="0" r="6.0023448386336336" fill="#ffffff">
      <animateMotion begin="-3.968256444823488s" dur="10s" repeatCount="indefinite">
        <mpath xlink:href="#path32"></mpath>
      </animateMotion>
    </circle><path id="path33" d="M 1443.3371585080993 770.4735311915992
c 0 36.19468275017921 -8.856145779299169 10.396345045264242 -19.25249082456341 10.396345045264242
S 1404.8321768589724 806.6682139417785 1404.8321768589724 770.4735311915992
s 8.856145779299169 -10.396345045264242 19.25249082456341 -10.396345045264242
S 1443.3371585080993 734.27884844142 1443.3371585080993 770.4735311915992
z" fill="none" stroke="none"></path>
    <circle cx="0" cy="0" r="7.483688511529591" fill="#28292f">
      <animateMotion begin="-4.817396583871359s" dur="10s" repeatCount="indefinite">
        <mpath xlink:href="#path33"></mpath>
      </animateMotion>
    </circle><path id="path34" d="M 1259.463601848831 20.26132320227918
c 0 35.148503884596096 -8.600165844103298 10.095846860469091 -18.69601270457239 10.095846860469091
S 1222.0715764396862 55.409827086875275 1222.0715764396862 20.26132320227918
s 8.600165844103298 -10.095846860469091 18.69601270457239 -10.095846860469091
S 1259.463601848831 -14.887180682316917 1259.463601848831 20.26132320227918
z" fill="none" stroke="none"></path>
    <circle cx="0" cy="0" r="4.4913266874213456" fill="#57ee15">
      <animateMotion begin="-2.1653739323566445s" dur="10s" repeatCount="indefinite">
        <mpath xlink:href="#path34"></mpath>
      </animateMotion>
    </circle><path id="path35" d="M 2176.606142311312 365.7999592204636
c 0 37.25870551252833 -9.116491774342038 10.701968604662392 -19.81846037900443 10.701968604662392
S 2136.9692215533028 403.05866473299193 2136.9692215533028 365.7999592204636
s 9.116491774342038 -10.701968604662392 19.81846037900443 -10.701968604662392
S 2176.606142311312 328.5412537079353 2176.606142311312 365.7999592204636
z" fill="none" stroke="none"></path>
    <circle cx="0" cy="0" r="7.795176463411839" fill="#0a0a0a">
      <animateMotion begin="-4.974857289840832s" dur="10s" repeatCount="indefinite">
        <mpath xlink:href="#path35"></mpath>
      </animateMotion>
    </circle><path id="path36" d="M 2119.3936940158274 217.12891541802404
c 0 23.486433174878314 -5.746680457682991 6.746103145975686 -12.492783603658676 6.746103145975686
S 2094.40812680851 240.61534859290236 2094.40812680851 217.12891541802404
s 5.746680457682991 -6.746103145975686 12.492783603658676 -6.746103145975686
S 2119.3936940158274 193.6424822431457 2119.3936940158274 217.12891541802404
z" fill="none" stroke="none"></path>
    <circle cx="0" cy="0" r="4.141389342791309" fill="#57ee15">
      <animateMotion begin="-8.143252396098422s" dur="10s" repeatCount="indefinite">
        <mpath xlink:href="#path36"></mpath>
      </animateMotion>
    </circle><path id="path37" d="M 375.821056082519 249.04057121772746
c 0 28.409223647221328 -6.951193020064792 8.160096153989105 -15.111289174053898 8.160096153989105
S 345.5984777344112 277.4497948649488 345.5984777344112 249.04057121772746
s 6.951193020064792 -8.160096153989105 15.111289174053898 -8.160096153989105
S 375.821056082519 220.63134757050614 375.821056082519 249.04057121772746
z" fill="none" stroke="none"></path>
    <circle cx="0" cy="0" r="4.437625194954169" fill="#ffffff">
      <animateMotion begin="-2.077653806333337s" dur="10s" repeatCount="indefinite">
        <mpath xlink:href="#path37"></mpath>
      </animateMotion>
    </circle><path id="path38" d="M 926.1332265589841 770.5557376339282
c 0 31.999643669310014 -7.8297000467460665 9.191387011397557 -17.021087058143625 9.191387011397557
S 892.0910524426969 802.5553813032382 892.0910524426969 770.5557376339282
s 7.8297000467460665 -9.191387011397557 17.021087058143625 -9.191387011397557
S 926.1332265589841 738.5560939646182 926.1332265589841 770.5557376339282
z" fill="none" stroke="none"></path>
    <circle cx="0" cy="0" r="5.075303230001041" fill="#ffffff">
      <animateMotion begin="-5.009061142727824s" dur="10s" repeatCount="indefinite">
        <mpath xlink:href="#path38"></mpath>
      </animateMotion>
    </circle><path id="path39" d="M 1055.8337833811468 512.790883702776
c 0 26.26098992309996 -6.425561364162755 7.543050297060627 -13.968611661223383 7.543050297060627
S 1027.8965600587 539.0518736258759 1027.8965600587 512.790883702776
s 6.425561364162755 -7.543050297060627 13.968611661223383 -7.543050297060627
S 1055.8337833811468 486.52989377967606 1055.8337833811468 512.790883702776
z" fill="none" stroke="none"></path>
    <circle cx="0" cy="0" r="7.670956071592432" fill="#17e76a">
      <animateMotion begin="-4.899019716210324s" dur="10s" repeatCount="indefinite">
        <mpath xlink:href="#path39"></mpath>
      </animateMotion>
    </circle><path id="path40" d="M 2016.7090887950549 380.4842165926411
c 0 22.065864458050523 -5.399094495054915 6.33806745071664 -11.737161945771554 6.33806745071664
S 1993.2347649035119 402.5500810506916 1993.2347649035119 380.4842165926411
s 5.399094495054915 -6.33806745071664 11.737161945771554 -6.33806745071664
S 2016.7090887950549 358.4183521345906 2016.7090887950549 380.4842165926411
z" fill="none" stroke="none"></path>
    <circle cx="0" cy="0" r="5.865917583513991" fill="#28292f">
      <animateMotion begin="-0.9693702665727799s" dur="10s" repeatCount="indefinite">
        <mpath xlink:href="#path40"></mpath>
      </animateMotion>
    </circle><path id="path41" d="M 1616.9836828791092 789.5428451620107
c 0 26.763314547425495 -6.5484705807530466 7.687335029579664 -14.23580561033271 7.687335029579664
S 1588.5120716584436 816.3061597094362 1588.5120716584436 789.5428451620107
s 6.5484705807530466 -7.687335029579664 14.23580561033271 -7.687335029579664
S 1616.9836828791092 762.7795306145853 1616.9836828791092 789.5428451620107
z" fill="none" stroke="none"></path>
    <circle cx="0" cy="0" r="6.750408008528272" fill="#28292f">
      <animateMotion begin="-3.823132632889046s" dur="10s" repeatCount="indefinite">
        <mpath xlink:href="#path41"></mpath>
      </animateMotion>
    </circle><path id="path42" d="M 2008.687939723005 78.50235466058881
c 0 22.185152220677015 -5.428281926335864 6.372330957002973 -11.800612883338836 6.372330957002973
S 1985.0867139563275 100.68750688126582 1985.0867139563275 78.50235466058881
s 5.428281926335864 -6.372330957002973 11.800612883338836 -6.372330957002973
S 2008.687939723005 56.317202439911796 2008.687939723005 78.50235466058881
z" fill="none" stroke="none"></path>
    <circle cx="0" cy="0" r="4.842158370355536" fill="#28292f">
      <animateMotion begin="-8.665205307623241s" dur="10s" repeatCount="indefinite">
        <mpath xlink:href="#path42"></mpath>
      </animateMotion>
    </circle><path id="path43" d="M 884.4826871210297 458.28614719507954
c 0 22.258073016995326 -5.446124248839282 6.393276292115679 -11.83940054095496 6.393276292115679
S 860.8038860391197 480.54422021207483 860.8038860391197 458.28614719507954
s 5.446124248839282 -6.393276292115679 11.83940054095496 -6.393276292115679
S 884.4826871210297 436.02807417808424 884.4826871210297 458.28614719507954
z" fill="none" stroke="none"></path>
    <circle cx="0" cy="0" r="6.146386513252798" fill="#57ee15">
      <animateMotion begin="-5.874045772315444s" dur="10s" repeatCount="indefinite">
        <mpath xlink:href="#path43"></mpath>
      </animateMotion>
    </circle><path id="path44" d="M 2428.7013023473255 673.7501801846486
c 0 35.89965570435987 -8.783958310641244 10.311603234231027 -19.09556154487227 10.311603234231027
S 2390.5101792575806 709.6498358890085 2390.5101792575806 673.7501801846486
s 8.783958310641244 -10.311603234231027 19.09556154487227 -10.311603234231027
S 2428.7013023473255 637.8505244802886 2428.7013023473255 673.7501801846486
z" fill="none" stroke="none"></path>
    <circle cx="0" cy="0" r="4.593022677972493" fill="#ffffff">
      <animateMotion begin="-5.424036696295536s" dur="10s" repeatCount="indefinite">
        <mpath xlink:href="#path44"></mpath>
      </animateMotion>
    </circle><path id="path45" d="M 921.357291158876 116.95877505979252
c 0 24.131822185888513 -5.90459479016421 6.931480840627551 -12.836075630791761 6.931480840627551
S 895.6851398972924 141.09059724568104 895.6851398972924 116.95877505979252
s 5.90459479016421 -6.931480840627551 12.836075630791761 -6.931480840627551
S 921.357291158876 92.826952873904 921.357291158876 116.95877505979252
z" fill="none" stroke="none"></path>
    <circle cx="0" cy="0" r="6.803198428938566" fill="#ffffff">
      <animateMotion begin="-4.360388720185259s" dur="10s" repeatCount="indefinite">
        <mpath xlink:href="#path45"></mpath>
      </animateMotion>
    </circle><path id="path46" d="M 550.823829840768 508.2918856850092
c 0 36.15052147699781 -8.84534036139308 10.383660424244052 -19.229000785637133 10.383660424244052
S 512.3658282694937 544.442407162007 512.3658282694937 508.2918856850092
s 8.84534036139308 -10.383660424244052 19.229000785637133 -10.383660424244052
S 550.823829840768 472.1413642080114 550.823829840768 508.2918856850092
z" fill="none" stroke="none"></path>
    <circle cx="0" cy="0" r="4.480566913791925" fill="#17e76a">
      <animateMotion begin="-9.80061324769097s" dur="10s" repeatCount="indefinite">
        <mpath xlink:href="#path46"></mpath>
      </animateMotion>
    </circle><path id="path47" d="M 923.5023875161374 653.5378294267739
c 0 21.12599109657154 -5.169125481076015 6.068103825610974 -11.237229306686988 6.068103825610974
S 901.0279289027634 674.6638205233454 901.0279289027634 653.5378294267739
s 5.169125481076015 -6.068103825610974 11.237229306686988 -6.068103825610974
S 923.5023875161374 632.4118383302024 923.5023875161374 653.5378294267739
z" fill="none" stroke="none"></path>
    <circle cx="0" cy="0" r="6.181207437138913" fill="#57ee15">
      <animateMotion begin="-6.004622451317356s" dur="10s" repeatCount="indefinite">
        <mpath xlink:href="#path47"></mpath>
      </animateMotion>
    </circle><path id="path48" d="M 2511.087821203798 687.5241509630979
c 0 27.070999375058555 -6.62375516623773 7.77571258645299 -14.39946775269072 7.77571258645299
S 2482.2888856984164 714.5951503381565 2482.2888856984164 687.5241509630979
s 6.62375516623773 -7.77571258645299 14.39946775269072 -7.77571258645299
S 2511.087821203798 660.4531515880393 2511.087821203798 687.5241509630979
z" fill="none" stroke="none"></path>
    <circle cx="0" cy="0" r="5.15658282078735" fill="#28292f">
      <animateMotion begin="-3.0788541234696365s" dur="10s" repeatCount="indefinite">
        <mpath xlink:href="#path48"></mpath>
      </animateMotion>
    </circle><path id="path49" d="M 2147.027111339206 344.25818720342556
c 0 19.487616734118554 -4.768246647709859 5.597506934268096 -10.365753581977955 5.597506934268096
S 2126.29560417525 363.7458039375441 2126.29560417525 344.25818720342556
s 4.768246647709859 -5.597506934268096 10.365753581977955 -5.597506934268096
S 2147.027111339206 324.770570469307 2147.027111339206 344.25818720342556
z" fill="none" stroke="none"></path>
    <circle cx="0" cy="0" r="6.5755857897938155" fill="#0a0a0a">
      <animateMotion begin="-4.852367600859848s" dur="10s" repeatCount="indefinite">
        <mpath xlink:href="#path49"></mpath>
      </animateMotion>
    </circle><path id="path50" d="M 397.0977091146748 609.6773710568532
c 0 36.61268995429495 -8.958424137753019 10.516410944318762 -19.47483508207178 10.516410944318762
S 358.14803895053126 646.2900610111482 358.14803895053126 609.6773710568532
s 8.958424137753019 -10.516410944318762 19.47483508207178 -10.516410944318762
S 397.0977091146748 573.0646811025582 397.0977091146748 609.6773710568532
z" fill="none" stroke="none"></path>
    <circle cx="0" cy="0" r="6.704333079147955" fill="#ffffff">
      <animateMotion begin="-7.961492881733023s" dur="10s" repeatCount="indefinite">
        <mpath xlink:href="#path50"></mpath>
      </animateMotion>
    </circle><path id="path51" d="M 1415.2708241273067 115.27676870752263
c 0 20.33741059292191 -4.97617493231068 5.84159665966906 -10.817771591979739 5.84159665966906
S 1393.6352809433474 135.61417930044453 1393.6352809433474 115.27676870752263
s 4.97617493231068 -5.84159665966906 10.817771591979739 -5.84159665966906
S 1415.2708241273067 94.93935811460072 1415.2708241273067 115.27676870752263
z" fill="none" stroke="none"></path>
    <circle cx="0" cy="0" r="6.967527766977145" fill="#ffffff">
      <animateMotion begin="-9.51263472926956s" dur="10s" repeatCount="indefinite">
        <mpath xlink:href="#path51"></mpath>
      </animateMotion>
    </circle><path id="path52" d="M 1359.3437366998476 22.741689150974608
c 0 24.819665302023257 -6.072896829218456 7.129052799517319 -13.201949628735774 7.129052799517319
S 1332.939837442376 47.56135445299786 1332.939837442376 22.741689150974608
s 6.072896829218456 -7.129052799517319 13.201949628735774 -7.129052799517319
S 1359.3437366998476 -2.0779761510486487 1359.3437366998476 22.741689150974608
z" fill="none" stroke="none"></path>
    <circle cx="0" cy="0" r="4.297384457011477" fill="#0a0a0a">
      <animateMotion begin="-4.657440132244379s" dur="10s" repeatCount="indefinite">
        <mpath xlink:href="#path52"></mpath>
      </animateMotion>
    </circle><path id="path53" d="M 902.8330904599194 396.69256810714285
c 0 23.36623807546585 -5.717271018465048 6.7115790216763624 -12.42885004014141 6.7115790216763624
S 877.9753903796367 420.0588061826087 877.9753903796367 396.69256810714285
s 5.717271018465048 -6.7115790216763624 12.42885004014141 -6.7115790216763624
S 902.8330904599194 373.326330031677 902.8330904599194 396.69256810714285
z" fill="none" stroke="none"></path>
    <circle cx="0" cy="0" r="5.062603097017762" fill="#57ee15">
      <animateMotion begin="-5.945237488391609s" dur="10s" repeatCount="indefinite">
        <mpath xlink:href="#path53"></mpath>
      </animateMotion>
    </circle><path id="path54" d="M 2344.1025958607975 459.81727872123594
c 0 36.92083972986593 -9.033822487094854 10.604922050067874 -19.63874453716273 10.604922050067874
S 2304.8251067864717 496.73811845110185 2304.8251067864717 459.81727872123594
s 9.033822487094854 -10.604922050067874 19.63874453716273 -10.604922050067874
S 2344.1025958607975 422.89643899137 2344.1025958607975 459.81727872123594
z" fill="none" stroke="none"></path>
    <circle cx="0" cy="0" r="5.661671109707079" fill="#57ee15">
      <animateMotion begin="-6.972679085742641s" dur="10s" repeatCount="indefinite">
        <mpath xlink:href="#path54"></mpath>
      </animateMotion>
    </circle><path id="path55" d="M 1049.9650749000587 595.4626412411521
c 0 31.010280404361897 -7.587621801067272 8.907208201252885 -16.494830002320157 8.907208201252885
S 1016.9754148954182 626.472921645514 1016.9754148954182 595.4626412411521
s 7.587621801067272 -8.907208201252885 16.494830002320157 -8.907208201252885
S 1049.9650749000587 564.4523608367903 1049.9650749000587 595.4626412411521
z" fill="none" stroke="none"></path>
    <circle cx="0" cy="0" r="6.921672814351484" fill="#ffffff">
      <animateMotion begin="-6.221362777424431s" dur="10s" repeatCount="indefinite">
        <mpath xlink:href="#path55"></mpath>
      </animateMotion>
    </circle><path id="path56" d="M 1232.7474882044025 569.2586801497107
c 0 20.024265845648934 -4.89955440904176 5.751650828005546 -10.651205237047305 5.751650828005546
S 1211.4450777303077 589.2829459953597 1211.4450777303077 569.2586801497107
s 4.89955440904176 -5.751650828005546 10.651205237047305 -5.751650828005546
S 1232.7474882044025 549.2344143040617 1232.7474882044025 569.2586801497107
z" fill="none" stroke="none"></path>
    <circle cx="0" cy="0" r="6.962479785986545" fill="#ffffff">
      <animateMotion begin="-0.7496713983239056s" dur="10s" repeatCount="indefinite">
        <mpath xlink:href="#path56"></mpath>
      </animateMotion>
    </circle><path id="path57" d="M 62.3183882840111 893.8716311877662
c 0 35.482507565506 -8.681890149006787 10.19178408796449 -18.873674236971276 10.19178408796449
S 24.571039810068548 929.3541387532722 24.571039810068548 893.8716311877662
s 8.681890149006787 -10.19178408796449 18.873674236971276 -10.19178408796449
S 62.3183882840111 858.3891236222602 62.3183882840111 893.8716311877662
z" fill="none" stroke="none"></path>
    <circle cx="0" cy="0" r="5.757207349939697" fill="#28292f">
      <animateMotion begin="-8.61906190761307s" dur="10s" repeatCount="indefinite">
        <mpath xlink:href="#path57"></mpath>
      </animateMotion>
    </circle></g>
</svg>
