<svg xmlns="http://www.w3.org/2000/svg" xmlns:xlink="http://www.w3.org/1999/xlink" style="margin:auto;background:#f1f2f3;display:block;z-index:1;position:relative" width="1920" height="937" preserveAspectRatio="xMidYMid" viewBox="0 0 1920 937">
  <g transform="translate(960,468.5) scale(1,1) translate(-960,-468.5)"><linearGradient id="lg-0.23129409762236364" x1="0" x2="1" y1="0" y2="0">
    <stop stop-color="#000000" offset="0"></stop>
    <stop stop-color="#55ff00" offset="1"></stop>
  </linearGradient><path d="M 1596 469 C 1596 648 1259 812 1089 867 C 919 922 531 1001 426 856 C 321 711 416 294 521 149 C 626 4 957 -100 1127 -45 C 1297 10 1596 290 1596 469" fill="url(#lg-0.23129409762236364)" opacity="0.4">
    <animate attributeName="d" dur="10s" repeatCount="indefinite" keyTimes="0;0.3333333333333333;0.6666666666666666;1" calcmod="spline" keySplines="0.3 0.1 0.7 0.9;0.3 0.1 0.7 0.9;0.3 0.1 0.7 0.9" begin="-4s" values="M 1596 469 C 1596 648 1259 812 1089 867 C 919 922 531 1001 426 856 C 321 711 416 294 521 149 C 626 4 957 -100 1127 -45 C 1297 10 1596 290 1596 469;M 1529 469 C 1529 645 1249 790 1082 844 C 915 898 585 958 482 816 C 379 674 351 243 454 101 C 557 -41 934 -20 1101 34 C 1268 88 1529 293 1529 469;M 1597 469 C 1597 631 1257 858 1103 908 C 949 958 599 931 504 800 C 409 669 433 286 528 155 C 623 24 923 58 1077 108 C 1231 158 1597 307 1597 469;M 1596 469 C 1596 648 1259 812 1089 867 C 919 922 531 1001 426 856 C 321 711 416 294 521 149 C 626 4 957 -100 1127 -45 C 1297 10 1596 290 1596 469"></animate>
  </path><path d="M 1578 469 C 1578 629 1259 870 1107 920 C 955 970 672 875 578 746 C 484 617 463 305 557 176 C 651 47 953 -28 1105 21 C 1257 70 1578 309 1578 469" fill="url(#lg-0.23129409762236364)" opacity="0.4">
    <animate attributeName="d" dur="10s" repeatCount="indefinite" keyTimes="0;0.3333333333333333;0.6666666666666666;1" calcmod="spline" keySplines="0.3 0.1 0.7 0.9;0.3 0.1 0.7 0.9;0.3 0.1 0.7 0.9" begin="-4s" values="M 1578 469 C 1578 629 1259 870 1107 920 C 955 970 672 875 578 746 C 484 617 463 305 557 176 C 651 47 953 -28 1105 21 C 1257 70 1578 309 1578 469;M 1654 469 C 1654 654 1268 819 1092 876 C 916 933 532 1009 423 859 C 314 709 329 239 438 89 C 547 -61 926 -25 1102 32 C 1278 89 1654 284 1654 469;M 1667 469 C 1667 653 1281 862 1106 919 C 931 976 546 997 438 848 C 330 699 341 246 449 97 C 557 -52 954 -108 1129 -51 C 1304 6 1667 285 1667 469;M 1578 469 C 1578 629 1259 870 1107 920 C 955 970 672 875 578 746 C 484 617 463 305 557 176 C 651 47 953 -28 1105 21 C 1257 70 1578 309 1578 469"></animate>
  </path><path d="M 1602 469 C 1602 638 1272 881 1111 933 C 950 985 652 902 552 765 C 452 628 379 256 479 119 C 579 -18 942 -23 1103 29 C 1264 81 1602 300 1602 469" fill="url(#lg-0.23129409762236364)" opacity="0.4">
    <animate attributeName="d" dur="10s" repeatCount="indefinite" keyTimes="0;0.3333333333333333;0.6666666666666666;1" calcmod="spline" keySplines="0.3 0.1 0.7 0.9;0.3 0.1 0.7 0.9;0.3 0.1 0.7 0.9" begin="-4s" values="M 1602 469 C 1602 638 1272 881 1111 933 C 950 985 652 902 552 765 C 452 628 379 256 479 119 C 579 -18 942 -23 1103 29 C 1264 81 1602 300 1602 469;M 1571 469 C 1571 650 1275 854 1103 910 C 931 966 608 949 501 802 C 394 655 356 254 463 107 C 570 -40 954 -99 1126 -43 C 1298 13 1571 288 1571 469;M 1535 469 C 1535 637 1270 879 1110 931 C 950 983 586 948 487 812 C 388 676 360 240 459 104 C 558 -32 926 28 1086 80 C 1246 132 1535 301 1535 469;M 1602 469 C 1602 638 1272 881 1111 933 C 950 985 652 902 552 765 C 452 628 379 256 479 119 C 579 -18 942 -23 1103 29 C 1264 81 1602 300 1602 469"></animate>
  </path><path d="M 1626 469 C 1626 649 1273 847 1101 903 C 929 959 524 1008 418 862 C 312 716 322 228 428 82 C 534 -64 954 -99 1126 -43 C 1298 13 1626 289 1626 469" fill="url(#lg-0.23129409762236364)" opacity="0.4">
    <animate attributeName="d" dur="10s" repeatCount="indefinite" keyTimes="0;0.3333333333333333;0.6666666666666666;1" calcmod="spline" keySplines="0.3 0.1 0.7 0.9;0.3 0.1 0.7 0.9;0.3 0.1 0.7 0.9" begin="-4s" values="M 1626 469 C 1626 649 1273 847 1101 903 C 929 959 524 1008 418 862 C 312 716 322 228 428 82 C 534 -64 954 -99 1126 -43 C 1298 13 1626 289 1626 469;M 1491 469 C 1491 635 1252 830 1094 881 C 936 932 647 901 549 767 C 451 633 452 304 550 170 C 648 36 955 -55 1113 -4 C 1271 47 1491 303 1491 469;M 1527 469 C 1527 643 1287 910 1121 964 C 955 1018 589 954 486 813 C 383 672 394 273 497 132 C 600 -9 914 45 1080 99 C 1246 153 1527 295 1527 469;M 1626 469 C 1626 649 1273 847 1101 903 C 929 959 524 1008 418 862 C 312 716 322 228 428 82 C 534 -64 954 -99 1126 -43 C 1298 13 1626 289 1626 469"></animate>
  </path><path d="M 1552 469 C 1552 633 1233 777 1077 828 C 921 879 564 959 468 826 C 372 693 437 291 533 158 C 629 25 947 -24 1103 27 C 1259 78 1552 305 1552 469" fill="url(#lg-0.23129409762236364)" opacity="0.4">
    <animate attributeName="d" dur="10s" repeatCount="indefinite" keyTimes="0;0.3333333333333333;0.6666666666666666;1" calcmod="spline" keySplines="0.3 0.1 0.7 0.9;0.3 0.1 0.7 0.9;0.3 0.1 0.7 0.9" begin="-4s" values="M 1552 469 C 1552 633 1233 777 1077 828 C 921 879 564 959 468 826 C 372 693 437 291 533 158 C 629 25 947 -24 1103 27 C 1259 78 1552 305 1552 469;M 1496 469 C 1496 640 1255 821 1092 874 C 929 927 567 966 466 827 C 365 688 445 307 546 168 C 647 29 913 59 1076 112 C 1239 165 1496 298 1496 469;M 1529 469 C 1529 643 1263 836 1097 890 C 931 944 633 921 531 780 C 429 639 397 275 499 134 C 601 -7 935 -19 1101 35 C 1267 89 1529 295 1529 469;M 1552 469 C 1552 633 1233 777 1077 828 C 921 879 564 959 468 826 C 372 693 437 291 533 158 C 629 25 947 -24 1103 27 C 1259 78 1552 305 1552 469"></animate>
  </path></g>
</svg>
