<svg xmlns="http://www.w3.org/2000/svg" style="margin:auto;background:rgba(NaN, NaN, NaN, 0);display:block;" width="524" height="250" preserveAspectRatio="xMidYMid">
  <style type="text/css">
    text {
      text-anchor: middle; font-size: 80px; opacity: 0;
    }
  </style>
  <g style="transform-origin:262px 125px;transform:scale(1)">
    <g transform="translate(262,125)">
      <g transform="translate(0,0)"><g class="path" style="transform: scale(1); transform-origin: -189.785px -6.38904px; animation: 1s linear -0.586667s infinite normal forwards running beat-5552ee9e-f54b-4a69-9732-810e45d88067;"><path d="M6.68 0L6.68-55.23L44.49-55.23L44.49-45L24.18-45L24.18-33.20L41.99-33.20L41.99-21.95L24.18-21.95L24.18 0L6.68 0" fill="#ffffff" stroke="none" stroke-width="none" transform="translate(-215.3699951171875,21.225954962836383)" style="fill: rgb(255, 255, 255);"></path></g><g class="path" style="transform: scale(1); transform-origin: -150.565px -0.374046px; animation: 1s linear -0.513333s infinite normal forwards running beat-5552ee9e-f54b-4a69-9732-810e45d88067;"><path d="M47.85 0L47.85-42.15L63.91-42.15L63.91-42.15Q63.83-41.13 63.79-39.90L63.79-39.90L63.79-39.90Q63.75-38.67 63.75-37.32L63.75-37.32L63.75-37.32Q63.75-35.98 63.75-34.61L63.75-34.61L63.75-34.61Q63.75-33.24 63.75-31.99L63.75-31.99L63.75-31.99Q64.53-33.91 65.78-35.92L65.78-35.92L65.78-35.92Q67.03-37.93 68.73-39.53L68.73-39.53L68.73-39.53Q70.43-41.13 72.60-42.17L72.60-42.17L72.60-42.17Q74.77-43.20 77.46-43.20L77.46-43.20L77.46-43.20Q77.97-43.20 78.57-43.14L78.57-43.14L78.57-43.14Q79.18-43.09 79.77-42.97L79.77-42.97L79.77-42.97Q80.35-42.85 80.88-42.68L80.88-42.68L80.88-42.68Q81.41-42.50 81.76-42.27L81.76-42.27L80.39-26.17L80.39-26.17Q78.63-26.84 76.68-27.17L76.68-27.17L76.68-27.17Q74.73-27.50 73.28-27.50L73.28-27.50L73.28-27.50Q71.29-27.50 69.79-27.01L69.79-27.01L69.79-27.01Q68.28-26.52 67.23-25.74L67.23-25.74L67.23-25.74Q66.17-24.96 65.57-24.02L65.57-24.02L65.57-24.02Q64.96-23.09 64.73-22.19L64.73-22.19L64.73 0L47.85 0" fill="#ffffff" stroke="none" stroke-width="none" transform="translate(-215.3699951171875,21.225954962836383)" style="fill: rgb(255, 255, 255);"></path></g><g class="path" style="transform: scale(1); transform-origin: -107.83px 0.190954px; animation: 1s linear -0.44s infinite normal forwards running beat-5552ee9e-f54b-4a69-9732-810e45d88067;"><path d="M127.93-12.77L127.93-1.68L127.93-1.68Q124.26-0.47 120 0.33L120 0.33L120 0.33Q115.74 1.13 111.13 1.13L111.13 1.13L111.13 1.13Q106.09 1.13 101.52-0.20L101.52-0.20L101.52-0.20Q96.95-1.52 93.48-4.34L93.48-4.34L93.48-4.34Q90-7.15 87.95-11.46L87.95-11.46L87.95-11.46Q85.90-15.78 85.90-21.76L85.90-21.76L85.90-21.76Q85.90-25.16 86.95-28.07L86.95-28.07L86.95-28.07Q88.01-30.98 89.82-33.36L89.82-33.36L89.82-33.36Q91.64-35.74 94.08-37.58L94.08-37.58L94.08-37.58Q96.52-39.41 99.32-40.66L99.32-40.66L99.32-40.66Q102.11-41.91 105.08-42.56L105.08-42.56L105.08-42.56Q108.05-43.20 110.90-43.20L110.90-43.20L110.90-43.20Q115.39-43.20 118.83-42.21L118.83-42.21L118.83-42.21Q122.27-41.21 124.55-39.53L124.55-39.53L124.55-39.53Q126.84-37.85 128.01-35.63L128.01-35.63L128.01-35.63Q129.18-33.40 129.18-30.90L129.18-30.90L129.18-30.90Q129.18-27.85 128.14-25.70L128.14-25.70L128.14-25.70Q127.11-23.55 125.37-22.09L125.37-22.09L125.37-22.09Q123.63-20.63 121.35-19.79L121.35-19.79L121.35-19.79Q119.06-18.95 116.52-18.50L116.52-18.50L116.52-18.50Q113.98-18.05 111.35-17.93L111.35-17.93L111.35-17.93Q108.71-17.81 106.33-17.81L106.33-17.81L106.33-17.81Q105.51-17.81 104.75-17.83L104.75-17.83L104.75-17.83Q103.98-17.85 103.24-17.85L103.24-17.85L103.24-17.85Q103.55-15.63 104.47-14.10L104.47-14.10L104.47-14.10Q105.39-12.58 106.78-11.62L106.78-11.62L106.78-11.62Q108.16-10.66 109.98-10.25L109.98-10.25L109.98-10.25Q111.80-9.84 113.87-9.84L113.87-9.84L113.87-9.84Q115.43-9.84 117.21-10.08L117.21-10.08L117.21-10.08Q118.98-10.31 120.80-10.72L120.80-10.72L120.80-10.72Q122.62-11.13 124.43-11.66L124.43-11.66L124.43-11.66Q126.25-12.19 127.93-12.77L127.93-12.77zM102.89-23.87L102.89-23.87L102.89-23.87Q103.83-23.91 105.29-23.98L105.29-23.98L105.29-23.98Q106.76-24.06 108.40-24.26L108.40-24.26L108.40-24.26Q110.04-24.45 111.68-24.80L111.68-24.80L111.68-24.80Q113.32-25.16 114.65-25.70L114.65-25.70L114.65-25.70Q115.98-26.25 116.80-27.07L116.80-27.07L116.80-27.07Q117.62-27.89 117.62-29.06L117.62-29.06L117.62-29.06Q117.62-31.05 116.04-32.25L116.04-32.25L116.04-32.25Q114.45-33.44 111.64-33.44L111.64-33.44L111.64-33.44Q110.35-33.44 108.87-33.07L108.87-33.07L108.87-33.07Q107.38-32.70 106.09-31.64L106.09-31.64L106.09-31.64Q104.80-30.59 103.91-28.71L103.91-28.71L103.91-28.71Q103.01-26.84 102.89-23.87" fill="#ffffff" stroke="none" stroke-width="none" transform="translate(-215.3699951171875,21.225954962836383)" style="fill: rgb(255, 255, 255);"></path></g><g class="path" style="transform: scale(1); transform-origin: -57.17px 0.190954px; animation: 1s linear -0.366667s infinite normal forwards running beat-5552ee9e-f54b-4a69-9732-810e45d88067;"><path d="M178.59-12.77L178.59-1.68L178.59-1.68Q174.92-0.47 170.66 0.33L170.66 0.33L170.66 0.33Q166.41 1.13 161.80 1.13L161.80 1.13L161.80 1.13Q156.76 1.13 152.19-0.20L152.19-0.20L152.19-0.20Q147.62-1.52 144.14-4.34L144.14-4.34L144.14-4.34Q140.66-7.15 138.61-11.46L138.61-11.46L138.61-11.46Q136.56-15.78 136.56-21.76L136.56-21.76L136.56-21.76Q136.56-25.16 137.62-28.07L137.62-28.07L137.62-28.07Q138.67-30.98 140.49-33.36L140.49-33.36L140.49-33.36Q142.30-35.74 144.75-37.58L144.75-37.58L144.75-37.58Q147.19-39.41 149.98-40.66L149.98-40.66L149.98-40.66Q152.77-41.91 155.74-42.56L155.74-42.56L155.74-42.56Q158.71-43.20 161.56-43.20L161.56-43.20L161.56-43.20Q166.05-43.20 169.49-42.21L169.49-42.21L169.49-42.21Q172.93-41.21 175.21-39.53L175.21-39.53L175.21-39.53Q177.50-37.85 178.67-35.63L178.67-35.63L178.67-35.63Q179.84-33.40 179.84-30.90L179.84-30.90L179.84-30.90Q179.84-27.85 178.81-25.70L178.81-25.70L178.81-25.70Q177.77-23.55 176.04-22.09L176.04-22.09L176.04-22.09Q174.30-20.63 172.01-19.79L172.01-19.79L172.01-19.79Q169.73-18.95 167.19-18.50L167.19-18.50L167.19-18.50Q164.65-18.05 162.01-17.93L162.01-17.93L162.01-17.93Q159.38-17.81 156.99-17.81L156.99-17.81L156.99-17.81Q156.17-17.81 155.41-17.83L155.41-17.83L155.41-17.83Q154.65-17.85 153.91-17.85L153.91-17.85L153.91-17.85Q154.22-15.63 155.14-14.10L155.14-14.10L155.14-14.10Q156.05-12.58 157.44-11.62L157.44-11.62L157.44-11.62Q158.83-10.66 160.64-10.25L160.64-10.25L160.64-10.25Q162.46-9.84 164.53-9.84L164.53-9.84L164.53-9.84Q166.09-9.84 167.87-10.08L167.87-10.08L167.87-10.08Q169.65-10.31 171.46-10.72L171.46-10.72L171.46-10.72Q173.28-11.13 175.10-11.66L175.10-11.66L175.10-11.66Q176.91-12.19 178.59-12.77L178.59-12.77zM153.55-23.87L153.55-23.87L153.55-23.87Q154.49-23.91 155.96-23.98L155.96-23.98L155.96-23.98Q157.42-24.06 159.06-24.26L159.06-24.26L159.06-24.26Q160.70-24.45 162.34-24.80L162.34-24.80L162.34-24.80Q163.98-25.16 165.31-25.70L165.31-25.70L165.31-25.70Q166.64-26.25 167.46-27.07L167.46-27.07L167.46-27.07Q168.28-27.89 168.28-29.06L168.28-29.06L168.28-29.06Q168.28-31.05 166.70-32.25L166.70-32.25L166.70-32.25Q165.12-33.44 162.30-33.44L162.30-33.44L162.30-33.44Q161.02-33.44 159.53-33.07L159.53-33.07L159.53-33.07Q158.05-32.70 156.76-31.64L156.76-31.64L156.76-31.64Q155.47-30.59 154.57-28.71L154.57-28.71L154.57-28.71Q153.67-26.84 153.55-23.87" fill="#ffffff" stroke="none" stroke-width="none" transform="translate(-215.3699951171875,21.225954962836383)" style="fill: rgb(255, 255, 255);"></path></g><g class="path" style="transform: scale(1); transform-origin: -6.50499px -6.38904px; animation: 1s linear -0.293333s infinite normal forwards running beat-5552ee9e-f54b-4a69-9732-810e45d88067;"><path d="M190.74 0L190.74-55.23L208.24-55.23L208.24-11.25L226.99-11.25L226.99 0L190.74 0" fill="#ffffff" stroke="none" stroke-width="none" transform="translate(-215.3699951171875,21.225954962836383)" style="fill: rgb(19, 255, 2);"></path></g><g class="path" style="transform: scale(1); transform-origin: 39.435px 0.190954px; animation: 1s linear -0.22s infinite normal forwards running beat-5552ee9e-f54b-4a69-9732-810e45d88067;"><path d="M245.27 1.13L245.27 1.13L245.27 1.13Q242.77 1.13 240.49 0.43L240.49 0.43L240.49 0.43Q238.20-0.27 236.45-1.72L236.45-1.72L236.45-1.72Q234.69-3.16 233.65-5.37L233.65-5.37L233.65-5.37Q232.62-7.58 232.62-10.59L232.62-10.59L232.62-10.59Q232.62-13.48 233.55-15.61L233.55-15.61L233.55-15.61Q234.49-17.73 236.07-19.26L236.07-19.26L236.07-19.26Q237.66-20.78 239.79-21.78L239.79-21.78L239.79-21.78Q241.91-22.77 244.30-23.34L244.30-23.34L244.30-23.34Q246.68-23.91 249.20-24.12L249.20-24.12L249.20-24.12Q251.72-24.34 254.10-24.34L254.10-24.34L254.10-24.34Q255.74-24.34 257.27-24.26L257.27-24.26L257.27-24.26Q258.79-24.18 260.12-24.06L260.12-24.06L260.12-24.06Q260.04-26.52 259.18-28.14L259.18-28.14L259.18-28.14Q258.32-29.77 256.91-30.72L256.91-30.72L256.91-30.72Q255.51-31.68 253.63-32.07L253.63-32.07L253.63-32.07Q251.76-32.46 249.69-32.46L249.69-32.46L249.69-32.46Q247.77-32.46 245.76-32.21L245.76-32.21L245.76-32.21Q243.75-31.95 241.84-31.58L241.84-31.58L241.84-31.58Q239.92-31.21 238.18-30.78L238.18-30.78L238.18-30.78Q236.45-30.35 235.12-30L235.12-30L235.12-40.94L235.12-40.94Q237.03-41.37 239.24-41.78L239.24-41.78L239.24-41.78Q241.45-42.19 243.83-42.50L243.83-42.50L243.83-42.50Q246.21-42.81 248.69-43.01L248.69-43.01L248.69-43.01Q251.17-43.20 253.59-43.20L253.59-43.20L253.59-43.20Q256.60-43.20 259.51-42.83L259.51-42.83L259.51-42.83Q262.42-42.46 265.02-41.60L265.02-41.60L265.02-41.60Q267.62-40.74 269.82-39.30L269.82-39.30L269.82-39.30Q272.03-37.85 273.61-35.72L273.61-35.72L273.61-35.72Q275.20-33.59 276.09-30.70L276.09-30.70L276.09-30.70Q276.99-27.81 276.99-24.02L276.99-24.02L276.99 0L260.90 0L260.90-6.99L260.90-6.99Q259.96-5.08 258.28-3.57L258.28-3.57L258.28-3.57Q256.60-2.07 254.49-1.02L254.49-1.02L254.49-1.02Q252.38 0.04 250 0.59L250 0.59L250 0.59Q247.62 1.13 245.27 1.13zM251.88-8.05L251.88-8.05L251.88-8.05Q252.97-8.05 254.39-8.65L254.39-8.65L254.39-8.65Q255.82-9.26 257.09-10.51L257.09-10.51L257.09-10.51Q258.36-11.76 259.24-13.67L259.24-13.67L259.24-13.67Q260.12-15.59 260.12-18.24L260.12-18.24L258.83-18.24L258.83-18.24Q256.95-18.24 254.98-17.85L254.98-17.85L254.98-17.85Q253.01-17.46 251.37-16.68L251.37-16.68L251.37-16.68Q249.73-15.90 248.67-14.77L248.67-14.77L248.67-14.77Q247.62-13.63 247.62-12.15L247.62-12.15L247.62-12.15Q247.62-10.98 248.01-10.20L248.01-10.20L248.01-10.20Q248.40-9.41 249.00-8.93L249.00-8.93L249.00-8.93Q249.61-8.44 250.37-8.24L250.37-8.24L250.37-8.24Q251.13-8.05 251.88-8.05" fill="#ffffff" stroke="none" stroke-width="none" transform="translate(-215.3699951171875,21.225954962836383)" style="fill: rgb(19, 255, 2);"></path></g><g class="path" style="transform: scale(1); transform-origin: 97.775px -0.374046px; animation: 1s linear -0.146667s infinite normal forwards running beat-5552ee9e-f54b-4a69-9732-810e45d88067;"><path d="M288.32 0L288.32-42.15L305.20-42.15L305.20-42.15Q304.96-40.82 304.73-38.73L304.73-38.73L304.73-38.73Q304.49-36.64 304.49-34.41L304.49-34.41L304.49-34.41Q305.82-36.41 307.83-38.03L307.83-38.03L307.83-38.03Q309.84-39.65 312.27-40.80L312.27-40.80L312.27-40.80Q314.69-41.95 317.40-42.58L317.40-42.58L317.40-42.58Q320.12-43.20 322.89-43.20L322.89-43.20L322.89-43.20Q325.94-43.20 328.67-42.29L328.67-42.29L328.67-42.29Q331.41-41.37 333.48-39.38L333.48-39.38L333.48-39.38Q335.55-37.38 336.76-34.20L336.76-34.20L336.76-34.20Q337.97-31.02 337.97-26.48L337.97-26.48L337.97 0L321.09 0L321.09-24.02L321.09-24.02Q321.09-26.45 320.59-28.05L320.59-28.05L320.59-28.05Q320.08-29.65 319.18-30.59L319.18-30.59L319.18-30.59Q318.28-31.52 317.05-31.91L317.05-31.91L317.05-31.91Q315.82-32.30 314.38-32.30L314.38-32.30L314.38-32.30Q312.81-32.30 311.29-31.78L311.29-31.78L311.29-31.78Q309.77-31.25 308.52-30.35L308.52-30.35L308.52-30.35Q307.27-29.45 306.37-28.24L306.37-28.24L306.37-28.24Q305.47-27.03 305.20-25.66L305.20-25.66L305.20 0L288.32 0" fill="#ffffff" stroke="none" stroke-width="none" transform="translate(-215.3699951171875,21.225954962836383)" style="fill: rgb(19, 255, 2);"></path></g><g class="path" style="transform: scale(1); transform-origin: 151.075px 0.170954px; animation: 1s linear -0.0733333s infinite normal forwards running beat-5552ee9e-f54b-4a69-9732-810e45d88067;"><path d="M363.63-21.02L363.63-21.02L363.63-21.02Q363.63-18.16 364.32-16.05L364.32-16.05L364.32-16.05Q365-13.95 366.25-12.56L366.25-12.56L366.25-12.56Q367.50-11.17 369.26-10.49L369.26-10.49L369.26-10.49Q371.02-9.80 373.20-9.80L373.20-9.80L373.20-9.80Q376.02-9.80 378.52-10.57L378.52-10.57L378.52-10.57Q381.02-11.33 383.63-12.66L383.63-12.66L386.13-2.50L386.13-2.50Q384.41-1.60 382.42-0.92L382.42-0.92L382.42-0.92Q380.43-0.23 378.32 0.21L378.32 0.21L378.32 0.21Q376.21 0.66 374.04 0.90L374.04 0.90L374.04 0.90Q371.88 1.13 369.80 1.13L369.80 1.13L369.80 1.13Q365.08 1.13 360.90-0.20L360.90-0.20L360.90-0.20Q356.72-1.52 353.57-4.26L353.57-4.26L353.57-4.26Q350.43-6.99 348.59-11.17L348.59-11.17L348.59-11.17Q346.76-15.35 346.76-21.05L346.76-21.05L346.76-21.05Q346.76-26.76 348.59-30.94L348.59-30.94L348.59-30.94Q350.43-35.12 353.57-37.85L353.57-37.85L353.57-37.85Q356.72-40.59 360.90-41.91L360.90-41.91L360.90-41.91Q365.08-43.24 369.80-43.24L369.80-43.24L369.80-43.24Q371.88-43.24 374.04-43.01L374.04-43.01L374.04-43.01Q376.21-42.77 378.32-42.32L378.32-42.32L378.32-42.32Q380.43-41.88 382.42-41.19L382.42-41.19L382.42-41.19Q384.41-40.51 386.13-39.61L386.13-39.61L383.63-29.45L383.63-29.45Q381.02-30.78 378.52-31.54L378.52-31.54L378.52-31.54Q376.02-32.30 373.20-32.30L373.20-32.30L373.20-32.30Q371.02-32.30 369.26-31.62L369.26-31.62L369.26-31.62Q367.50-30.94 366.25-29.53L366.25-29.53L366.25-29.53Q365-28.13 364.32-26.00L364.32-26.00L364.32-26.00Q363.63-23.87 363.63-21.02" fill="#ffffff" stroke="none" stroke-width="none" transform="translate(-215.3699951171875,21.225954962836383)" style="fill: rgb(19, 255, 2);"></path></g><g class="path" style="transform: scale(1); transform-origin: 200.41px 0.190954px; animation: 1s linear 0s infinite normal forwards running beat-5552ee9e-f54b-4a69-9732-810e45d88067;"><path d="M436.17-12.77L436.17-1.68L436.17-1.68Q432.50-0.47 428.24 0.33L428.24 0.33L428.24 0.33Q423.98 1.13 419.38 1.13L419.38 1.13L419.38 1.13Q414.34 1.13 409.77-0.20L409.77-0.20L409.77-0.20Q405.20-1.52 401.72-4.34L401.72-4.34L401.72-4.34Q398.24-7.15 396.19-11.46L396.19-11.46L396.19-11.46Q394.14-15.78 394.14-21.76L394.14-21.76L394.14-21.76Q394.14-25.16 395.20-28.07L395.20-28.07L395.20-28.07Q396.25-30.98 398.07-33.36L398.07-33.36L398.07-33.36Q399.88-35.74 402.32-37.58L402.32-37.58L402.32-37.58Q404.77-39.41 407.56-40.66L407.56-40.66L407.56-40.66Q410.35-41.91 413.32-42.56L413.32-42.56L413.32-42.56Q416.29-43.20 419.14-43.20L419.14-43.20L419.14-43.20Q423.63-43.20 427.07-42.21L427.07-42.21L427.07-42.21Q430.51-41.21 432.79-39.53L432.79-39.53L432.79-39.53Q435.08-37.85 436.25-35.63L436.25-35.63L436.25-35.63Q437.42-33.40 437.42-30.90L437.42-30.90L437.42-30.90Q437.42-27.85 436.39-25.70L436.39-25.70L436.39-25.70Q435.35-23.55 433.61-22.09L433.61-22.09L433.61-22.09Q431.88-20.63 429.59-19.79L429.59-19.79L429.59-19.79Q427.30-18.95 424.77-18.50L424.77-18.50L424.77-18.50Q422.23-18.05 419.59-17.93L419.59-17.93L419.59-17.93Q416.95-17.81 414.57-17.81L414.57-17.81L414.57-17.81Q413.75-17.81 412.99-17.83L412.99-17.83L412.99-17.83Q412.23-17.85 411.48-17.85L411.48-17.85L411.48-17.85Q411.80-15.63 412.71-14.10L412.71-14.10L412.71-14.10Q413.63-12.58 415.02-11.62L415.02-11.62L415.02-11.62Q416.41-10.66 418.22-10.25L418.22-10.25L418.22-10.25Q420.04-9.84 422.11-9.84L422.11-9.84L422.11-9.84Q423.67-9.84 425.45-10.08L425.45-10.08L425.45-10.08Q427.23-10.31 429.04-10.72L429.04-10.72L429.04-10.72Q430.86-11.13 432.68-11.66L432.68-11.66L432.68-11.66Q434.49-12.19 436.17-12.77L436.17-12.77zM411.13-23.87L411.13-23.87L411.13-23.87Q412.07-23.91 413.54-23.98L413.54-23.98L413.54-23.98Q415-24.06 416.64-24.26L416.64-24.26L416.64-24.26Q418.28-24.45 419.92-24.80L419.92-24.80L419.92-24.80Q421.56-25.16 422.89-25.70L422.89-25.70L422.89-25.70Q424.22-26.25 425.04-27.07L425.04-27.07L425.04-27.07Q425.86-27.89 425.86-29.06L425.86-29.06L425.86-29.06Q425.86-31.05 424.28-32.25L424.28-32.25L424.28-32.25Q422.70-33.44 419.88-33.44L419.88-33.44L419.88-33.44Q418.59-33.44 417.11-33.07L417.11-33.07L417.11-33.07Q415.63-32.70 414.34-31.64L414.34-31.64L414.34-31.64Q413.05-30.59 412.15-28.71L412.15-28.71L412.15-28.71Q411.25-26.84 411.13-23.87" fill="#ffffff" stroke="none" stroke-width="none" transform="translate(-215.3699951171875,21.225954962836383)" style="fill: rgb(19, 255, 2);"></path></g></g>
    </g>
  </g>
</svg>
